<?xml version="1.0" encoding="UTF-8" standalone="no"?>
<svg
   xmlns:dc="http://purl.org/dc/elements/1.1/"
   xmlns:cc="http://creativecommons.org/ns#"
   xmlns:rdf="http://www.w3.org/1999/02/22-rdf-syntax-ns#"
   xmlns:svg="http://www.w3.org/2000/svg"
   xmlns="http://www.w3.org/2000/svg"
   xmlns:sodipodi="http://sodipodi.sourceforge.net/DTD/sodipodi-0.dtd"
   xmlns:inkscape="http://www.inkscape.org/namespaces/inkscape"
   width="100"
   height="90"
   viewBox="0 0 100 90.00713"
   version="1.1"
   id="svg4"
   sodipodi:docname="Qingshan name.svg"
   inkscape:version="0.92.3 (2405546, 2018-03-11)">
  <title
     id="title28">U. Cooperativa de Colombia logo</title>
  <metadata
     id="metadata10">
    <rdf:RDF>
      <cc:Work
         rdf:about="">
        <dc:format>image/svg+xml</dc:format>
        <dc:type
           rdf:resource="http://purl.org/dc/dcmitype/StillImage" />
        <dc:title>U. Cooperativa de Colombia logo</dc:title>
        <cc:license
           rdf:resource="http://scripts.sil.org/OFL" />
      </cc:Work>
      <cc:License
         rdf:about="http://scripts.sil.org/OFL">
        <cc:permits
           rdf:resource="http://scripts.sil.org/pub/OFL/Reproduction" />
        <cc:permits
           rdf:resource="http://scripts.sil.org/pub/OFL/Distribution" />
        <cc:permits
           rdf:resource="http://scripts.sil.org/pub/OFL/Embedding" />
        <cc:permits
           rdf:resource="http://scripts.sil.org/pub/OFL/DerivativeWorks" />
        <cc:requires
           rdf:resource="http://scripts.sil.org/pub/OFL/Notice" />
        <cc:requires
           rdf:resource="http://scripts.sil.org/pub/OFL/Attribution" />
        <cc:requires
           rdf:resource="http://scripts.sil.org/pub/OFL/ShareAlike" />
        <cc:requires
           rdf:resource="http://scripts.sil.org/pub/OFL/DerivativeRenaming" />
        <cc:requires
           rdf:resource="http://scripts.sil.org/pub/OFL/BundlingWhenSelling" />
      </cc:License>
    </rdf:RDF>
  </metadata>
  <defs
     id="defs8" />
  <sodipodi:namedview
     pagecolor="#ffffff"
     bordercolor="#000000"
     borderopacity="0.39215686"
     objecttolerance="1"
     gridtolerance="1"
     guidetolerance="1"
     inkscape:pageopacity="0"
     inkscape:pageshadow="2"
     inkscape:window-width="1366"
     inkscape:window-height="705"
     id="namedview6"
     showgrid="false"
     inkscape:zoom="1"
     inkscape:cx="45.628482"
     inkscape:cy="48.308472"
     inkscape:window-x="-8"
     inkscape:window-y="-8"
     inkscape:window-maximized="1"
     inkscape:current-layer="svg4"
     inkscape:pagecheckerboard="false"
     inkscape:showpageshadow="false"
     borderlayer="true"
     showguides="false" />
  <g
     transform="matrix(1.1021094,0,0,-1.1021094,0.86912979,88.617824)"
     id="g10">
    <g
       transform="scale(0.1)"
       id="g12">
      <path
         style="fill:#7fc52d;fill-opacity:1;fill-rule:evenodd;stroke:none;stroke-width:0.13333333"
         d="m -106.81055,0 v 43.5 c 0,7.645333 6.25506,13.900391 13.900394,13.900391 7.645333,0 13.898437,-6.255058 13.898437,-13.900391 V 0 Z m 64.501956,5.4980469 c -14.414666,0 -26.101562,11.6849431 -26.101562,26.0996091 0,14.414533 11.686896,26.09961 26.101562,26.09961 1.329067,0 2.63611,-0.09928 3.91211,-0.291016 v -8.134766 c -1.259867,0.278134 -2.56891,0.425782 -3.91211,0.425782 -9.995866,0 -18.099609,-8.103343 -18.099609,-18.09961 0,-9.995866 8.103743,-18.099609 18.099609,-18.099609 1.3432,0 2.652243,0.148181 3.91211,0.425781 V 5.7910156 c -1.276,-0.1922666 -2.583043,-0.2929687 -3.91211,-0.2929687 z"
         transform="matrix(7.5000002,0,0,-7.5000002,1040.1709,787.30097)"
         id="path14"
         inkscape:connector-curvature="0" />
      <path
         style="fill:#55b7c9;fill-opacity:1;fill-rule:evenodd;stroke:none;stroke-width:0.13333333"
         d="m -127.21094,0 v 44.199219 c 0,18.534933 15.16624,33.699219 33.701174,33.699219 h 55.113282 v -11.0625 c -1.414,0.171333 -2.852634,0.261718 -4.3125,0.261718 -12.076667,0 -22.743851,-6.030674 -29.15625,-15.24414 -3.056267,8.680666 -11.352789,14.947265 -21.044922,14.947265 h -0.002 c -12.265074,0 -22.298834,-10.035715 -22.298834,-22.300781 V 0 Z m 56.599612,0 V 9.6464844 C -67.461862,5.6490178 -63.47025,2.3442666 -58.90625,0 Z m 28.302734,27.447266 c -2.292266,0 -4.15039,1.858257 -4.15039,4.15039 0,2.292267 1.858124,4.150391 4.15039,4.150391 2.292134,0 4.150391,-1.858124 4.150391,-4.150391 0,-2.292133 -1.858257,-4.15039 -4.150391,-4.15039 z"
         transform="matrix(7.5000002,0,0,-7.5000002,1040.1709,787.30097)"
         id="path16"
         inkscape:connector-curvature="0" />
      <path
         id="path20"
         style="fill:#c7dc2b;fill-opacity:1;fill-rule:evenodd;stroke:none"
         d="m 722.852,648.195 c 10.218,0 20.074,-1.57 29.339,-4.472 v -46.118 c -8.519,5.297 -18.574,8.36 -29.339,8.36 -30.731,0 -55.649,-24.918 -55.649,-55.649 0,-30.734 24.918,-55.648 55.649,-55.648 10.765,0 20.82,3.059 29.339,8.359 V 456.91 c -9.265,-2.906 -19.121,-4.476 -29.339,-4.476 -54.059,0 -97.883,43.82 -97.883,97.882 0,54.059 43.824,97.879 97.883,97.879"
         inkscape:connector-curvature="0" />
      <path
         style="fill:#100f0d;fill-opacity:1;fill-rule:nonzero;stroke:none;stroke-width:0.13333333"
         d="m -124.8418,85.490234 c -0.25093,0 -0.4646,0.08714 -0.64062,0.263672 -0.17656,0.176134 -0.26563,0.389205 -0.26563,0.638672 0,0.2604 0.0893,0.480376 0.26953,0.66211 0.17812,0.181866 0.39329,0.271484 0.64649,0.271484 0.24787,0 0.45823,-0.08803 0.63476,-0.265625 0.17614,-0.178667 0.26563,-0.393951 0.26563,-0.646485 0,-0.256266 -0.0898,-0.47403 -0.26953,-0.654296 -0.17814,-0.1796 -0.39116,-0.269532 -0.64063,-0.269532 z m 21.1875,0 c -0.25106,0 -0.46604,0.08714 -0.64258,0.263672 -0.17599,0.176134 -0.26367,0.389205 -0.26367,0.638672 0,0.2604 0.0879,0.480376 0.26758,0.66211 0.17813,0.181866 0.39289,0.271484 0.64649,0.271484 0.24746,0 0.46018,-0.08803 0.63671,-0.265625 0.176,-0.178667 0.26563,-0.393951 0.26563,-0.646485 0,-0.256266 -0.0898,-0.47403 -0.26953,-0.654296 -0.17814,-0.1796 -0.39116,-0.269532 -0.64063,-0.269532 z m 70.546878,0 c -0.251067,0 -0.464092,0.08714 -0.640625,0.263672 -0.176133,0.176134 -0.265625,0.389205 -0.265625,0.638672 0,0.2604 0.0898,0.480376 0.269531,0.66211 0.178134,0.181866 0.392751,0.271484 0.646485,0.271484 0.247333,0 0.458232,-0.08803 0.634765,-0.265625 0.176,-0.178667 0.265625,-0.393951 0.265625,-0.646485 0,-0.256266 -0.08993,-0.47403 -0.269531,-0.654296 -0.178133,-0.1796 -0.391158,-0.269532 -0.640625,-0.269532 z m -64.814453,0.138672 v 2.816406 c -0.254667,-0.254666 -0.531011,-0.446218 -0.830078,-0.574218 -0.299467,-0.126667 -0.619204,-0.191406 -0.960938,-0.191406 -0.741069,0 -1.368449,0.28069 -1.886719,0.83789 -0.51827,0.559467 -0.7793,1.274038 -0.7793,2.148438 0,0.842266 0.26687,1.549087 0.80274,2.115234 0.536,0.567707 1.17038,0.851562 1.906248,0.851562 0.3256,0 0.630423,-0.06015 0.910156,-0.175781 0.2796,-0.116146 0.559758,-0.305346 0.837891,-0.568359 v 0.603516 h 1.419922 v -7.863282 z m 13.181641,0 v 2.816406 c -0.254667,-0.254666 -0.531145,-0.446218 -0.830078,-0.574218 -0.298934,-0.126667 -0.618805,-0.191406 -0.960938,-0.191406 -0.740667,0 -1.370405,0.28069 -1.888672,0.83789 -0.518133,0.559467 -0.777344,1.274038 -0.777344,2.148438 0,0.842266 0.266735,1.549087 0.802735,2.115234 0.535866,0.567707 1.170783,0.851562 1.90625,0.851562 0.326,0 0.630423,-0.06015 0.910156,-0.175781 0.279733,-0.116146 0.559757,-0.305346 0.837891,-0.568359 v 0.603516 h 1.419922 v -7.863282 z m 9.060546,0 c -0.745866,0 -1.439317,0.181502 -2.083984,0.542969 -0.6464,0.361467 -1.142948,0.838794 -1.488281,1.433594 -0.347333,0.594266 -0.519531,1.273462 -0.519531,2.039062 0,1.1808 0.380091,2.15105 1.140625,2.90625 0.7604,0.757294 1.737907,1.134766 2.93164,1.134766 0.645867,0 1.222963,-0.107159 1.726563,-0.322266 0.504133,-0.213546 1.040755,-0.59817 1.607422,-1.152343 l -0.992188,-1.03711 c -0.420267,0.416667 -0.806956,0.704948 -1.160156,0.863281 -0.350533,0.158334 -0.73811,0.238282 -1.16211,0.238282 -0.498933,0 -0.951508,-0.113804 -1.359374,-0.339844 -0.406267,-0.226573 -0.72096,-0.536794 -0.94336,-0.933594 -0.222933,-0.395333 -0.335937,-0.849861 -0.335937,-1.361328 0,-0.733867 0.251726,-1.349609 0.755859,-1.849609 0.5016,-0.500534 1.121602,-0.751954 1.855469,-0.751954 0.8708,0 1.653342,0.366277 2.349609,1.09961 l 1.023438,-0.972656 c -0.424,-0.491067 -0.929759,-0.869519 -1.515625,-1.136719 -0.588,-0.2672 -1.197812,-0.400391 -1.830079,-0.400391 z m 39.439454,0.0957 v 2.09375 h -0.726563 v 1.228516 h 0.726563 v 4.445313 h 1.419922 v -4.445313 h 0.845703 v -1.228516 h -0.845703 v -2.09375 z m -101.964846,0.0957 v 4.574219 c 0,0.9152 0.10912,1.562373 0.32422,1.947266 0.21771,0.384373 0.57682,0.704177 1.08203,0.960937 0.50364,0.254694 1.0957,0.382813 1.77539,0.382813 0.51875,0 0.97565,-0.06732 1.36524,-0.201172 0.3927,-0.133333 0.73919,-0.341541 1.03711,-0.619141 0.30104,-0.27812 0.50261,-0.565754 0.60937,-0.865234 0.10677,-0.29896 0.16016,-0.832535 0.16016,-1.605469 v -4.574219 h -1.79297 v 4.779297 c 0,0.514534 -0.0425,0.865675 -0.12891,1.046875 -0.0875,0.183854 -0.244,0.333466 -0.47265,0.451172 -0.22916,0.118747 -0.50026,0.177735 -0.81641,0.177735 -0.29635,0 -0.55079,-0.05494 -0.76172,-0.160157 -0.21147,-0.106773 -0.36198,-0.245708 -0.45312,-0.423828 -0.0917,-0.175986 -0.13672,-0.479183 -0.13672,-0.90625 v -4.964844 z m 9.95313,1.859376 c -0.27448,0 -0.54272,0.053 -0.80469,0.158203 -0.26197,0.1068 -0.55457,0.293519 -0.87695,0.564453 v -0.583985 h -1.42188 v 5.673829 h 1.42188 v -2.271485 c 0,-0.589067 0.0194,-0.972257 0.0605,-1.150391 0.0802,-0.338133 0.22344,-0.606028 0.42969,-0.798828 0.20676,-0.192133 0.45364,-0.287109 0.74219,-0.287109 0.22082,0 0.40899,0.05769 0.56055,0.173828 0.14947,0.1156 0.25547,0.285413 0.3164,0.507813 0.0604,0.220933 0.0918,0.668636 0.0918,1.345703 v 2.480469 h 1.41015 v -3.744141 c 0,-0.6516 -0.16693,-1.146069 -0.49609,-1.480469 -0.39219,-0.3916 -0.87058,-0.58789 -1.43359,-0.58789 z m 13.13086,0 c -0.84227,0 -1.54033,0.285555 -2.09766,0.857421 -0.5572,0.569734 -0.83594,1.286391 -0.83594,2.150391 0,0.842267 0.27874,1.544662 0.83594,2.103516 0.55733,0.561453 1.28104,0.841796 2.16797,0.841796 0.57133,10e-7 1.06433,-0.102074 1.48047,-0.304687 0.4152,-0.2052 0.77284,-0.519399 1.07031,-0.943359 l -1.19141,-0.564454 c -0.3812,0.37448 -0.83638,0.560547 -1.36718,0.560547 -0.4416,0 -0.80687,-0.118355 -1.0918,-0.357421 -0.28493,-0.240107 -0.46174,-0.562664 -0.52734,-0.966797 h 4.56835 l 0.006,-0.269532 c 0,-0.9348 -0.28051,-1.684039 -0.83984,-2.253906 -0.55947,-0.568667 -1.28507,-0.853515 -2.17773,-0.853515 z m 5.84765,0 c -0.25826,-10e-7 -0.49746,0.07302 -0.71679,0.21875 -0.2172,0.145866 -0.39158,0.361378 -0.52344,0.642578 v -0.722657 h -1.22852 v 5.673829 h 1.41992 v -2.28711 l -0.004,-0.277344 c 0,-0.790666 0.0735,-1.32153 0.22461,-1.591796 0.14946,-0.270934 0.33553,-0.40625 0.55273,-0.40625 0.10667,0 0.24456,0.04167 0.41016,0.125 l 0.4414,-1.228516 c -0.20146,-0.098 -0.39283,-0.146484 -0.57617,-0.146484 z m 2.42383,0 c -0.538,0 -0.97835,0.159362 -1.32422,0.476562 -0.34573,0.316667 -0.51953,0.700084 -0.51953,1.146484 0,0.692667 0.45971,1.269002 1.37891,1.730469 l 0.47851,0.240235 c 0.4152,0.206266 0.62305,0.419911 0.62305,0.638671 0,0.117707 -0.0576,0.221874 -0.17383,0.3125 -0.114,0.09063 -0.26606,0.136719 -0.45312,0.136719 -0.1744,0 -0.37508,-0.06185 -0.59961,-0.18164 -0.226,-0.11928 -0.42211,-0.276437 -0.58985,-0.470704 l -0.87695,0.953125 c 0.4932,0.646867 1.15642,0.970703 1.98242,0.970703 0.62347,10e-7 1.11944,-0.168872 1.49024,-0.505859 0.37026,-0.334373 0.55664,-0.753259 0.55664,-1.255859 0,-0.377547 -0.10198,-0.705128 -0.30664,-0.986328 -0.20467,-0.279734 -0.58246,-0.557506 -1.13086,-0.826172 l -0.52149,-0.259766 c -0.226,-0.1124 -0.36845,-0.200205 -0.42578,-0.263672 -0.0568,-0.06467 -0.084,-0.132451 -0.084,-0.208984 0,-0.09947 0.0436,-0.18422 0.13476,-0.251953 0.0907,-0.06773 0.2166,-0.101563 0.375,-0.101563 0.29214,0 0.61444,0.17889 0.97071,0.535156 l 0.88085,-0.886718 c -0.22599,-0.302534 -0.50035,-0.535266 -0.82421,-0.697266 -0.32614,-0.162533 -0.67235,-0.24414 -1.04102,-0.24414 z m 13.728516,0 c -0.740666,0 -1.370538,0.28069 -1.888672,0.83789 -0.518266,0.559467 -0.777343,1.274038 -0.777343,2.148438 0,0.842266 0.266867,1.549087 0.802734,2.115234 0.536,0.567707 1.170917,0.851562 1.90625,0.851562 0.3256,0 0.628603,-0.06015 0.908203,-0.175781 0.279733,-0.116146 0.559757,-0.305346 0.837891,-0.568359 v 0.603516 h 1.421875 v -5.673829 h -1.421875 V 88.4414 c -0.2548,-0.2532 -0.531145,-0.443779 -0.830078,-0.570312 -0.299467,-0.126667 -0.616851,-0.191406 -0.958985,-0.191406 z m 24.113282,0 c -0.742667,0 -1.398837,0.257131 -1.970704,0.769531 -0.6516,0.5896 -0.976562,1.327557 -0.976562,2.21289 0,0.824 0.288168,1.524876 0.865234,2.103516 0.575067,0.57708 1.270338,0.867187 2.085938,0.867187 0.554266,0 1.060017,-0.132557 1.521484,-0.394531 0.459333,-0.261986 0.822777,-0.625257 1.089844,-1.089843 0.265733,-0.465107 0.40039,-0.963647 0.40039,-1.498047 0,-0.530667 -0.13337,-1.024509 -0.398437,-1.484375 -0.265067,-0.4572 -0.631469,-0.818738 -1.105469,-1.085938 -0.471866,-0.2672 -0.975719,-0.40039 -1.511718,-0.40039 z m 6.376953,0 c -0.7428,0 -1.398837,0.257131 -1.970703,0.769531 -0.6516,0.5896 -0.976563,1.327557 -0.976563,2.21289 0,0.824 0.288701,1.524876 0.865234,2.103516 0.5756,0.57708 1.272158,0.867187 2.087891,0.867187 0.5536,0 1.058598,-0.132557 1.519531,-0.394531 0.459334,-0.261986 0.822644,-0.625257 1.089844,-1.089843 0.265067,-0.465107 0.400391,-0.963647 0.400391,-1.498047 0,-0.530667 -0.132705,-1.024509 -0.398438,-1.484375 -0.265067,-0.4572 -0.631469,-0.818738 -1.105469,-1.085938 -0.471333,-0.2672 -0.975852,-0.40039 -1.511718,-0.40039 z m 6.921875,0 c -0.340134,-10e-7 -0.661338,0.06474 -0.960938,0.191406 -0.298933,0.126533 -0.577718,0.317112 -0.833984,0.570312 v -0.623047 h -1.419922 V 95.5664 h 1.419922 v -2.68164 c 0.278133,0.265626 0.558644,0.456119 0.839844,0.572265 0.281333,0.115627 0.585576,0.175781 0.912109,0.175781 0.733333,10e-7 1.368477,-0.283855 1.902344,-0.851562 0.5364,-0.566147 0.802734,-1.272968 0.802734,-2.115234 0,-0.8744 -0.259077,-1.588971 -0.777344,-2.148438 -0.518266,-0.5572 -1.146232,-0.83789 -1.884765,-0.83789 z m 6.042968,0 c -0.8428,-10e-7 -1.540323,0.285555 -2.097656,0.857421 -0.557733,0.569734 -0.83789,1.286391 -0.83789,2.150391 0,0.842267 0.280157,1.544662 0.83789,2.103516 0.557333,0.561453 1.281036,0.841796 2.167969,0.841796 0.571867,10e-7 1.063802,-0.102074 1.480469,-0.304687 0.415066,-0.2052 0.772845,-0.519399 1.070312,-0.943359 l -1.193359,-0.564454 c -0.3808,0.37448 -0.834968,0.560547 -1.365235,0.560547 -0.442133,0 -0.806863,-0.118355 -1.091796,-0.357421 -0.2844,-0.240107 -0.461744,-0.562664 -0.527344,-0.966797 h 4.568359 l 0.0059,-0.269532 c 0,-0.9348 -0.28051,-1.684039 -0.839843,-2.253906 -0.559467,-0.568667 -1.285601,-0.853515 -2.177735,-0.853515 z m 5.847657,0 c -0.258267,-10e-7 -0.497997,0.07302 -0.716797,0.21875 -0.2172,0.145866 -0.391171,0.361378 -0.523438,0.642578 v -0.722657 h -1.228515 v 5.673829 h 1.419921 v -2.28711 l -0.0039,-0.277344 c 0,-0.790666 0.07354,-1.32153 0.22461,-1.591796 0.15,-0.270934 0.335001,-0.40625 0.552734,-0.40625 0.1068,0 0.244556,0.04167 0.410156,0.125 l 0.441406,-1.228516 c -0.201466,-0.098 -0.393371,-0.146484 -0.576171,-0.146484 z m 3.226562,0 c -0.7412,0 -1.370405,0.28069 -1.888672,0.83789 -0.518133,0.559467 -0.777343,1.274038 -0.777343,2.148438 0,0.842266 0.266734,1.549087 0.802734,2.115234 0.535867,0.567707 1.168297,0.851562 1.904297,0.851562 0.325466,0 0.630423,-0.06015 0.910156,-0.175781 0.279733,-0.116146 0.559891,-0.305346 0.837891,-0.568359 v 0.603516 h 1.421875 v -5.673829 h -1.421875 V 88.4414 c -0.254667,-0.2532 -0.531145,-0.443779 -0.830078,-0.570312 -0.299467,-0.126667 -0.617385,-0.191406 -0.958985,-0.191406 z m 16.947266,0 c -0.7412,0 -1.368586,0.28069 -1.886719,0.83789 -0.518267,0.559467 -0.779297,1.274038 -0.779297,2.148438 0,0.842266 0.266868,1.549087 0.802735,2.115234 0.535999,0.567707 1.170916,0.851562 1.90625,0.851562 0.325599,0 0.630556,-0.06015 0.910156,-0.175781 0.279733,-0.116146 0.557804,-0.305346 0.835937,-0.568359 v 0.603516 h 1.421875 v -5.673829 h -1.421875 V 88.4414 c -0.254666,-0.2532 -0.529191,-0.443779 -0.828125,-0.570312 -0.299466,-0.126667 -0.619337,-0.191406 -0.960937,-0.191406 z m -101.910159,0.138671 v 5.673829 h 1.41992 v -5.673829 z m 1.64258,0 2.41992,5.673829 h 0.90821 l 2.4414,-5.673829 h -1.44336 l -1.4414,3.34961 -1.42969,-3.34961 z m 19.54297,0 v 5.673829 h 1.42187 v -5.673829 z m 70.548828,0 v 5.673829 h 1.419921 v -5.673829 z m 1.642578,0 2.419922,5.673829 h 0.908203 l 2.441406,-5.673829 h -1.443359 l -1.441407,3.34961 -1.427734,-3.34961 z m -82.867186,1.080079 c 0.3672,0 0.68724,0.09675 0.96484,0.291015 0.27614,0.193733 0.46042,0.445993 0.55469,0.755859 h -3.08789 c 0.15987,-0.343733 0.33455,-0.58395 0.52148,-0.71875 0.30054,-0.219333 0.64954,-0.328124 1.04688,-0.328124 z m 65.455076,0 c 0.366667,-10e-7 0.687244,0.09675 0.964844,0.291015 0.276133,0.193733 0.460021,0.445993 0.554688,0.755859 h -3.087891 c 0.160533,-0.343733 0.334551,-0.58395 0.521484,-0.71875 0.301067,-0.219333 0.649542,-0.328124 1.046875,-0.328124 z m -49.830078,0.08594 c 0.4504,0 0.822921,0.152365 1.117188,0.457031 0.295333,0.306267 0.443359,0.704066 0.443359,1.197266 0,0.504133 -0.148026,0.912763 -0.443359,1.222656 -0.294267,0.311453 -0.664529,0.466797 -1.111328,0.466797 -0.434934,0 -0.800188,-0.15755 -1.097658,-0.472656 -0.29733,-0.317254 -0.44531,-0.721338 -0.44531,-1.210938 0,-0.4864 0.14537,-0.885446 0.4375,-1.195312 0.29067,-0.311467 0.657341,-0.464844 1.099608,-0.464844 z m 6.589844,0 c 0.450533,0 0.824874,0.152365 1.11914,0.457031 0.295867,0.306267 0.44336,0.704066 0.44336,1.197266 0,0.504133 -0.147493,0.912763 -0.44336,1.222656 -0.294266,0.311453 -0.666347,0.466797 -1.113281,0.466797 -0.4348,0 -0.800323,-0.15755 -1.097656,-0.472656 -0.297467,-0.317254 -0.445313,-0.721338 -0.445313,-1.210938 10e-7,-0.4864 0.14732,-0.885446 0.439454,-1.195312 0.290133,-0.311467 0.655523,-0.464844 1.097656,-0.464844 z m 6.591797,0 c 0.450533,0 0.823454,0.152365 1.117187,0.457031 0.295734,0.306267 0.44336,0.704066 0.44336,1.197266 0,0.504133 -0.147626,0.912763 -0.44336,1.222656 -0.293733,0.311453 -0.665948,0.466797 -1.113281,0.466797 -0.4344,0 -0.798236,-0.15755 -1.095703,-0.472656 -0.297867,-0.317254 -0.445313,-0.721338 -0.445313,-1.210938 0,-0.4864 0.145234,-0.885446 0.4375,-1.195312 0.290134,-0.311467 0.657876,-0.464844 1.09961,-0.464844 z m 30.226562,0 c 0.445334,0 0.814802,0.153377 1.105469,0.464844 0.292133,0.309866 0.4375,0.708912 0.4375,1.195312 0,0.4896 -0.147846,0.893684 -0.445312,1.210938 -0.297334,0.315106 -0.662723,0.472656 -1.097657,0.472656 -0.4464,0 -0.817061,-0.155344 -1.111328,-0.466797 -0.295333,-0.309893 -0.443359,-0.718523 -0.443359,-1.222656 0,-0.4932 0.148026,-0.890999 0.443359,-1.197266 0.294267,-0.304666 0.664928,-0.457031 1.111328,-0.457031 z m 15.710938,0 c 0.450533,0 0.824874,0.152365 1.11914,0.457031 0.295334,0.306267 0.44336,0.704066 0.44336,1.197266 0,0.504133 -0.148026,0.912763 -0.44336,1.222656 -0.294266,0.311453 -0.666348,0.466797 -1.113281,0.466797 -0.434933,0 -0.800323,-0.15755 -1.097656,-0.472656 -0.297467,-0.317254 -0.445313,-0.721338 -0.445313,-1.210938 0,-0.4864 0.145234,-0.885446 0.4375,-1.195312 0.290667,-0.311467 0.65801,-0.464844 1.09961,-0.464844 z m 16.949219,0 c 0.450533,0 0.82292,0.152365 1.117187,0.457031 0.295333,0.306267 0.443359,0.704066 0.443359,1.197266 0,0.504133 -0.148026,0.912763 -0.443359,1.222656 -0.294267,0.311453 -0.666348,0.466797 -1.113281,0.466797 -0.4348,0 -0.79837,-0.15755 -1.095703,-0.472656 -0.297467,-0.317254 -0.445313,-0.721338 -0.445313,-1.210938 0,-0.4864 0.145367,-0.885446 0.4375,-1.195312 0.290667,-0.311467 0.657476,-0.464844 1.09961,-0.464844 z m -45.634766,0.03125 c 0.452533,0 0.824568,0.151878 1.115234,0.455078 0.290134,0.304667 0.435547,0.697194 0.435547,1.183594 0,0.4844 -0.147493,0.881146 -0.443359,1.189453 -0.297334,0.308333 -0.667948,0.462891 -1.113282,0.462891 -0.447333,0 -0.814935,-0.152858 -1.105468,-0.457032 -0.290134,-0.304706 -0.4375,-0.704112 -0.4375,-1.195312 0,-0.479067 0.149492,-0.871421 0.443359,-1.179688 0.293733,-0.306266 0.662136,-0.458984 1.105469,-0.458984 z m 6.376953,0 c 0.452533,0 0.823148,0.151878 1.113281,0.455078 0.290134,0.304667 0.4375,0.697194 0.4375,1.183594 0,0.4844 -0.146959,0.881146 -0.443359,1.189453 -0.297333,0.308333 -0.667948,0.462891 -1.113281,0.462891 -0.446934,0 -0.815336,-0.152858 -1.105469,-0.457032 -0.290133,-0.304706 -0.4375,-0.704112 -0.4375,-1.195312 0,-0.479067 0.147673,-0.871421 0.441406,-1.179688 0.294267,-0.306266 0.664222,-0.458984 1.107422,-0.458984 z m 9.390625,7.328125 c -0.251067,0 -0.464625,0.08907 -0.640625,0.265625 -0.176667,0.17604 -0.265625,0.389192 -0.265625,0.638672 0,0.259893 0.0898,0.480349 0.269531,0.662109 0.178134,0.181254 0.393285,0.271485 0.646485,0.271485 0.247333,0 0.458232,-0.0875 0.634765,-0.265625 0.176,-0.17864 0.265625,-0.395305 0.265625,-0.648438 0,-0.25624 -0.0894,-0.47265 -0.269531,-0.652344 -0.178133,-0.180213 -0.391158,-0.271484 -0.640625,-0.271484 z m -51.21484,0.138672 v 2.818359 c -0.25467,-0.25468 -0.53102,-0.448038 -0.83008,-0.576172 -0.29894,-0.12656 -0.61672,-0.189453 -0.95899,-0.189453 -0.74066,0 -1.37093,0.278124 -1.88867,0.835938 -0.51826,0.559373 -0.77734,1.275909 -0.77734,2.150389 0,0.84271 0.26687,1.54714 0.80273,2.11329 0.536,0.56771 1.17092,0.85156 1.90625,0.85156 0.32614,0 0.63043,-0.0577 0.91016,-0.17383 0.2796,-0.11563 0.5578,-0.30482 0.83594,-0.56836 v 0.60352 h 1.42187 v -7.865241 z m 15.626949,0 c -0.7464,0 -1.441137,0.181515 -2.085937,0.542969 -0.646267,0.361466 -1.140995,0.838807 -1.486328,1.433593 -0.347334,0.5948 -0.519532,1.273436 -0.519532,2.039069 0,1.18073 0.378272,2.15299 1.138672,2.9082 0.7604,0.75677 1.738441,1.13477 2.931641,1.13477 0.6464,0 1.222963,-0.1086 1.726563,-0.32422 0.504666,-0.21354 1.041288,-0.59819 1.607421,-1.15235 l -0.992187,-1.03515 c -0.420267,0.41614 -0.80749,0.70494 -1.160156,0.86328 -0.350534,0.15885 -0.73811,0.23633 -1.16211,0.23633 -0.4984,0 -0.951508,-0.11185 -1.359375,-0.33789 -0.405733,-0.22604 -0.720426,-0.53867 -0.943359,-0.93555 -0.2224,-0.39532 -0.333984,-0.84844 -0.333984,-1.35938 0,-0.734373 0.249772,-1.351042 0.753906,-1.851562 0.502133,-0.50052 1.121602,-0.751953 1.855468,-0.751953 0.870934,0 1.653877,0.367709 2.34961,1.101563 l 1.02539,-0.972657 c -0.423999,-0.491146 -0.929758,-0.870965 -1.515624,-1.138672 -0.588,-0.267186 -1.197812,-0.40039 -1.830079,-0.40039 z m 10.228516,0 v 7.865241 h 1.421875 v -7.865241 z m 18.205078,0 v 7.865241 h 1.419922 v -0.60352 c 0.278133,0.26354 0.558644,0.45273 0.839844,0.56836 0.281333,0.11615 0.585576,0.17383 0.912109,0.17383 0.733333,0 1.366524,-0.28385 1.900391,-0.85156 0.5364,-0.56615 0.804687,-1.27058 0.804687,-2.11329 0,-0.87448 -0.259077,-1.591016 -0.777344,-2.150389 -0.518266,-0.557814 -1.146098,-0.835938 -1.884765,-0.835938 -0.34,0 -0.662004,0.06289 -0.960938,0.189453 -0.299466,0.128134 -0.577717,0.321492 -0.833984,0.576172 V 96.482422 Z M -99.375,98.535156 c -0.84213,0 -1.54032,0.283589 -2.09766,0.855469 -0.55733,0.57032 -0.83593,1.288815 -0.83593,2.152345 0,0.84219 0.2786,1.54467 0.83593,2.10351 0.55734,0.56146 1.28037,0.83985 2.167972,0.83985 0.571334,0 1.064336,-0.10157 1.480469,-0.30469 0.415067,-0.20469 0.772979,-0.51745 1.070313,-0.94141 l -1.191406,-0.56445 c -0.380667,0.37396 -0.836388,0.56055 -1.367188,0.56055 -0.4416,0 -0.80646,-0.11837 -1.0918,-0.35742 -0.2844,-0.24011 -0.45965,-0.56264 -0.52539,-0.9668 h 4.566409 l 0.0059,-0.26953 c 0,-0.9349 -0.278424,-1.684121 -0.83789,-2.253908 -0.559334,-0.56876 -1.287421,-0.853516 -2.179688,-0.853516 z m 17.238281,0 c -0.742666,0 -1.396883,0.256505 -1.96875,0.769532 -0.6516,0.589573 -0.978515,1.325522 -0.978515,2.210932 0,0.82448 0.288701,1.52682 0.865234,2.10547 0.5756,0.57708 1.272291,0.86524 2.087891,0.86524 0.553733,0 1.060551,-0.13112 1.521484,-0.39258 0.459867,-0.26198 0.822777,-0.62527 1.089844,-1.08984 0.2652,-0.46511 0.398437,-0.96368 0.398437,-1.49805 0,-0.53073 -0.131417,-1.025 -0.396484,-1.48438 -0.2656,-0.457809 -0.631469,-0.818746 -1.105469,-1.085933 -0.471867,-0.267187 -0.977672,-0.400391 -1.513672,-0.400391 z m 8.47461,0 c -0.742667,0 -1.396884,0.256505 -1.96875,0.769532 -0.6516,0.589573 -0.978516,1.325522 -0.978516,2.210932 0,0.82448 0.288701,1.52682 0.865234,2.10547 0.575467,0.57708 1.272291,0.86524 2.087891,0.86524 0.5536,0 1.058598,-0.13112 1.519531,-0.39258 0.46,-0.26198 0.824597,-0.62527 1.091797,-1.08984 0.2656,-0.46511 0.398438,-0.96368 0.398438,-1.49805 0,-0.53073 -0.131418,-1.025 -0.396485,-1.48438 -0.2656,-0.457809 -0.633422,-0.818746 -1.107422,-1.085933 -0.471866,-0.267187 -0.975718,-0.400391 -1.511718,-0.400391 z m 6.908203,0 c -0.352667,0 -0.679096,0.06589 -0.976563,0.199219 -0.299466,0.132293 -0.57072,0.332816 -0.814453,0.601563 v -0.66211 h -1.419922 v 5.673832 h 1.419922 v -2.51563 c 0,-0.54323 0.04866,-0.94024 0.144531,-1.19336 0.09787,-0.25313 0.243587,-0.44922 0.439453,-0.58984 0.194267,-0.140629 0.409905,-0.210939 0.648438,-0.210939 0.214133,0 0.397895,0.05559 0.548828,0.166019 0.149467,0.11197 0.263491,0.2802 0.337891,0.50781 0.07667,0.22604 0.115234,0.59389 0.115234,1.09961 v 2.73633 h 1.421875 v -2.55078 c 0,-0.54115 0.04636,-0.93347 0.140625,-1.17774 0.09427,-0.24376 0.241633,-0.43529 0.4375,-0.57226 0.194267,-0.139072 0.414643,-0.208989 0.662109,-0.208989 0.3224,0 0.567049,0.11327 0.728516,0.339839 0.1624,0.22604 0.242188,0.66159 0.242188,1.30274 v 2.86719 h 1.421875 v -3.32227 c 0,-0.68021 -0.06784,-1.173442 -0.201172,-1.476562 -0.135334,-0.30052 -0.356329,-0.545435 -0.664063,-0.732422 -0.306266,-0.186973 -0.662273,-0.28125 -1.066406,-0.28125 -0.390133,0 -0.750345,0.08724 -1.080078,0.261719 -0.3296,0.17448 -0.607985,0.431238 -0.833984,0.765625 -0.1744,-0.334387 -0.405007,-0.591145 -0.691407,-0.765625 -0.284933,-0.17448 -0.606271,-0.261719 -0.960937,-0.261719 z m 17.478515,0 c -0.740666,0 -1.370405,0.278124 -1.888671,0.835938 -0.518134,0.559373 -0.777344,1.275906 -0.777344,2.150386 0,0.84271 0.266734,1.54714 0.802734,2.11329 0.535867,0.56771 1.170783,0.85156 1.90625,0.85156 0.326,0 0.62847,-0.0577 0.908203,-0.17383 0.279734,-0.11563 0.559758,-0.30482 0.837891,-0.56836 v 0.60352 h 1.421875 v -5.673832 h -1.421875 v 0.623047 c -0.254667,-0.253133 -0.531145,-0.446226 -0.830078,-0.572266 -0.299467,-0.12656 -0.616851,-0.189453 -0.958985,-0.189453 z m -4.658203,0.138672 v 5.673832 h 1.421875 v -5.673832 z m -45.365234,1.080078 c 0.366667,0 0.687244,0.0948 0.964844,0.289064 0.276,0.19376 0.459887,0.44792 0.554687,0.75781 h -3.087893 c 0.1604,-0.34375 0.33597,-0.58529 0.52344,-0.7207 0.30053,-0.219269 0.647455,-0.326174 1.044922,-0.326174 z m -6.632812,0.08398 c 0.4504,0 0.82541,0.154291 1.11914,0.458994 0.29587,0.30571 0.44336,0.70402 0.44336,1.19726 0,0.50416 -0.14749,0.91276 -0.44336,1.22266 -0.29373,0.31146 -0.66595,0.46679 -1.11328,0.46679 -0.4344,0 -0.80032,-0.1595 -1.09766,-0.47461 -0.29733,-0.31718 -0.44531,-0.71939 -0.44531,-1.20898 0,-0.48593 0.14732,-0.88542 0.43945,-1.19531 0.29014,-0.311474 0.65593,-0.466804 1.09766,-0.466804 z m 48.470702,0 c 0.445334,0 0.814803,0.15533 1.105469,0.466794 0.292134,0.30989 0.4375,0.70938 0.4375,1.19532 0,0.48959 -0.147846,0.8918 -0.445312,1.20897 -0.297334,0.31512 -0.662857,0.47461 -1.097657,0.47461 -0.446399,0 -0.819014,-0.15533 -1.113281,-0.46679 -0.295333,-0.3099 -0.441406,-0.7185 -0.441406,-1.22266 0,-0.49324 0.146073,-0.89155 0.441406,-1.19726 0.294267,-0.304693 0.666882,-0.458984 1.113281,-0.458984 z m 8.476563,0 c 0.450533,0 0.825407,0.154291 1.119141,0.458994 0.295733,0.30571 0.443359,0.70402 0.443359,1.19726 0,0.50416 -0.147626,0.91276 -0.443359,1.22266 -0.293734,0.31146 -0.665815,0.46679 -1.113282,0.46679 -0.4344,0 -0.800189,-0.1595 -1.097656,-0.47461 -0.297867,-0.31718 -0.445312,-0.71939 -0.445312,-1.20898 0,-0.48593 0.147186,-0.88542 0.439453,-1.19531 0.290133,-0.311474 0.655923,-0.466804 1.097656,-0.466804 z m -33.130859,0.0332 c 0.452,0 0.825101,0.150524 1.115234,0.453124 0.290667,0.30469 0.4375,0.69909 0.4375,1.18555 0,0.48437 -0.148913,0.8806 -0.445312,1.18945 -0.297334,0.30781 -0.668082,0.46289 -1.113282,0.46289 -0.446933,0 -0.815469,-0.15287 -1.105468,-0.45703 -0.290134,-0.3047 -0.435547,-0.70365 -0.435547,-1.19531 0,-0.47916 0.147673,-0.87136 0.441406,-1.17969 0.294267,-0.30626 0.661602,-0.458984 1.105469,-0.458984 z m 8.474609,0 c 0.452133,0 0.825101,0.150524 1.115234,0.453124 0.290534,0.30469 0.435547,0.69909 0.435547,1.18555 0,0.48437 -0.147492,0.8806 -0.443359,1.18945 -0.297467,0.30781 -0.668481,0.46289 -1.113281,0.46289 -0.447334,0 -0.814802,-0.15287 -1.105469,-0.45703 -0.290133,-0.3047 -0.435547,-0.70365 -0.435547,-1.19531 0,-0.47916 0.148206,-0.87136 0.441406,-1.17969 0.294267,-0.30626 0.662269,-0.458984 1.105469,-0.458984 z"
         transform="matrix(7.5000002,0,0,-7.5000002,1040.1709,787.30097)"
         id="path24"
         inkscape:connector-curvature="0" />
    </g>
  </g>
</svg>
